inDegrees=yes
name=ik_S52_A09_T02
DataType=double
version=3
OpenSimVersion=4.3-2021-08-27-4bc7ad9
endheader
time	pelvis_tilt	pelvis_list	pelvis_rotation	pelvis_tx	pelvis_ty	pelvis_tz	hip_flexion_r	hip_adduction_r	hip_rotation_r	knee_angle_r	knee_angle_r_beta	ankle_angle_r	subtalar_angle_r	mtp_angle_r	hip_flexion_l	hip_adduction_l	hip_rotation_l	knee_angle_l	knee_angle_l_beta	ankle_angle_l	subtalar_angle_l	mtp_angle_l	lumbar_extension	lumbar_bending	lumbar_rotation	arm_flex_r	arm_add_r	arm_rot_r	elbow_flex_r	pro_sup_r	wrist_flex_r	wrist_dev_r	arm_flex_l	arm_add_l	arm_rot_l	elbow_flex_l	pro_sup_l	wrist_flex_l	wrist_dev_l
8.219999999999914	-5.115637687530893	-1.406817864565772	25.6219877906633	0	0.9399999999999999	0	35.96562263142825	-13.50913553505125	-10.6880640241037	48.92969588371272	0.8539842951703035	0	0	0	35.96562263142825	-13.50913553505125	-10.6880640241037	48.92969588371272	0.8539842951703035	0	0	0	-3.014838422379287	-2.367777350713057	0.6301075089958249	61.46278006572225	-2.318842698082412	6.365729163323066	44.57629314467724	132.1065348869321	0	0	58.82899374894411	-25.76559054162597	-8.416267473945663	34.37959274882392	115.7551161105358	0	0
8.239999999999913	-5.116892541777871	-1.413305621830766	25.60414405388278	0	0.9399999999999999	0	35.95133209559551	-13.52964916790962	-10.6905677138519	48.9234587332457	0.8538754363587117	0	0	0	35.95133209559551	-13.52964916790962	-10.6905677138519	48.9234587332457	0.8538754363587117	0	0	0	-3.016049055502001	-2.377845272203372	0.6487173628270205	61.47583106747064	-2.319481777026236	6.326748623740783	44.64862063538739	132.0541678828804	0	0	58.97258073409979	-25.76296775865608	-8.33660703590421	34.03659957663732	115.909939898692	0	0
8.259999999999913	-5.119368560071484	-1.413208019217377	25.59808793176132	0	0.9399999999999999	0	35.9355417788459	-13.54588783656263	-10.69288222140808	48.91610830038844	0.8537471471039056	0	0	0	35.9355417788459	-13.54588783656263	-10.69288222140808	48.91610830038844	0.8537471471039056	0	0	0	-3.0155361633899	-2.380803757795383	0.6488948597676709	61.46253602006362	-2.294026798787895	6.275200068254152	44.59970428239112	132.0911974551074	0	0	58.98020549390939	-25.78018981960442	-8.337413265942184	33.93503077545244	116.1143586073932	0	0
8.279999999999912	-5.137507945391694	-1.41584045560128	25.60290817817592	0	0.9399999999999999	0	35.90969471654304	-13.58347585470474	-10.69743143298546	48.90481022447241	0.8535499584800308	0	0	0	35.90969471654304	-13.58347585470474	-10.69743143298546	48.90481022447241	0.8535499584800308	0	0	0	-3.029580892865199	-2.379415655780017	0.6133943847089334	61.50342832790378	-2.245408139065561	6.282009803530959	44.57512485988035	132.0630318054098	0	0	59.15566638767646	-25.81409807476646	-8.384297178163417	33.6637316653817	116.5154799655878	0	0
8.299999999999912	-5.142744186478591	-1.398326610187759	25.59682809622183	0	0.9399999999999999	0	35.89865733161785	-13.60060566715536	-10.69945616252959	48.90008886715528	0.8534675552496837	0	0	0	35.89865733161785	-13.60060566715536	-10.69945616252959	48.90008886715528	0.8534675552496837	0	0	0	-3.024825593198975	-2.364340889745306	0.6187046581881566	61.50622084159789	-2.258744044432653	6.317280396019642	44.5559906012252	132.0715628322714	0	0	59.29437967983417	-25.81788515157793	-8.303764300431583	33.40658645811956	116.4442566828967	0	0
8.319999999999911	-5.140281833042911	-1.382141882553256	25.55871660720834	0	0.9399999999999999	0	35.90081745301608	-13.59768908381109	-10.6990934451809	48.90106774671714	0.8534846399210185	0	0	0	35.90081745301608	-13.59768908381109	-10.6990934451809	48.90106774671714	0.8534846399210185	0	0	0	-3.015368379346798	-2.352107045859571	0.6472386910540602	61.49549988362864	-2.25346341484952	6.33987708324842	44.5548994785375	132.1429929176687	0	0	59.39907065728961	-25.8150204191414	-8.113432023314052	33.24603017044238	116.0751272513579	0	0
8.339999999999911	-5.156633893619571	-1.396313503374657	25.51173613805097	0	0.9399999999999999	0	35.90722992166837	-13.60088209912115	-10.69886420937171	48.90484589546935	0.8535505810563748	0	0	0	35.90722992166837	-13.60088209912115	-10.69886420937171	48.90484589546935	0.8535505810563748	0	0	0	-3.037312055728375	-2.356676836755923	0.6618936841135397	61.58157647257835	-2.193935584924314	6.309427644789929	44.54361173099127	132.2326389402257	0	0	59.53740600691375	-25.83511475258828	-7.967472089908568	33.09488061254812	115.7427265114367	0	0
8.359999999999911	-5.148806484778568	-1.393353177915684	25.52385799082454	0	0.9399999999999999	0	35.90803827248998	-13.5998031148437	-10.69872955708434	48.90521673236872	0.8535570533812566	0	0	0	35.90803827248998	-13.5998031148437	-10.69872955708434	48.90521673236872	0.8535570533812566	0	0	0	-3.029264181681702	-2.356589235053072	0.6520391746217671	61.57279160046333	-2.17678953361368	6.269550884942007	44.50974756485866	132.2491786771501	0	0	59.59309511142951	-25.82303123153287	-8.068918592755614	33.04163502523954	115.6732618380429	0	0
8.37999999999991	-5.151019920996967	-1.380281959843529	25.53388390860843	0	0.9399999999999999	0	35.91046811590792	-13.5964755672688	-10.69831802856766	48.90630427790353	0.8535760346316045	0	0	0	35.91046811590792	-13.5964755672688	-10.69831802856766	48.90630427790353	0.8535760346316045	0	0	0	-3.026699623966321	-2.341238347064494	0.6206290521763023	61.60015800907858	-2.132578325306369	6.321983443876239	44.4332286565181	132.2851843779181	0	0	59.66230336642162	-25.89432598558982	-8.18827863882656	32.82991555454796	115.4988042201594	0	0
8.39999999999991	-5.154450781854926	-1.366281635110887	25.52222230676916	0	0.9399999999999999	0	35.9201235443655	-13.58668254918959	-10.6969254073813	48.91087879731822	0.8536558750570872	0	0	0	35.9201235443655	-13.58668254918959	-10.6969254073813	48.91087879731822	0.8536558750570872	0	0	0	-3.025340774467419	-2.325178757683311	0.6304530069973984	61.61758637557208	-2.145644603504582	6.340171594093836	44.42046970934749	132.35720360957	0	0	59.67760614048084	-25.92684026593859	-8.094852605633683	32.78872160630492	115.2459148297574	0	0
8.419999999999909	-5.156839977442976	-1.355123223300619	25.48835700190641	0	0.9399999999999999	0	35.92211897270308	-13.58400762952281	-10.69659195874667	48.91178835103891	0.8536717497642371	0	0	0	35.92211897270308	-13.58400762952281	-10.69659195874667	48.91178835103891	0.8536717497642371	0	0	0	-3.022064979381167	-2.316560449322373	0.677485731029408	61.60561119217446	-2.152273978112874	6.299856405329788	44.40222969535242	132.4037269293207	0	0	59.63436254975419	-25.88081155497312	-7.945826529628699	32.8587330337002	114.7447804765609	0	0
8.439999999999909	-5.163852349891047	-1.356148127991703	25.51544813062702	0	0.9399999999999999	0	35.92447640172627	-13.58082669385773	-10.69619634844322	48.91285624918081	0.8536903881028891	0	0	0	35.92447640172627	-13.58082669385773	-10.69619634844322	48.91285624918081	0.8536903881028891	0	0	0	-3.029568567583869	-2.312499641637312	0.6564854134242309	61.63085636241779	-2.161727647154618	6.301517108757709	44.39739823774734	132.4035260262874	0	0	59.49880802079609	-25.86922641064762	-8.123512103305627	33.1382510462271	114.3134117917639	0	0
8.459999999999908	-5.139728295931891	-1.35705057233683	25.55447894664396	0	0.9399999999999999	0	35.99294973807051	-13.50250760942329	-10.68565075224975	48.94445431715415	0.8542418784262928	0	0	0	35.99294973807051	-13.50250760942329	-10.68565075224975	48.94445431715415	0.8542418784262928	0	0	0	-3.02009393931244	-2.30585614734669	0.6285353147289251	61.58351726793807	-2.18620397389002	6.27985132028471	44.47121672059316	132.2662207489037	0	0	59.29684238887242	-25.89224146856289	-8.178519777980291	33.57476228194339	114.1261655665255	0	0
8.479999999999908	-5.138140644686911	-1.35866932311933	25.41314344076889	0	0.9399999999999999	0	35.99691724431644	-13.49730787682939	-10.68499591472061	48.94627903461122	0.8542737257538373	0	0	0	35.99691724431644	-13.49730787682939	-10.68499591472061	48.94627903461122	0.8542737257538373	0	0	0	-3.016923695407355	-2.316776454941688	0.7828652378051044	61.59322132775537	-2.173397421997084	6.264283742295166	44.37185346734094	132.3275927474507	0	0	59.07161547001196	-25.86096265655553	-8.043565060230284	35.04884147277604	113.7026820860762	0	0
8.499999999999908	-5.154108015608744	-1.362658920720449	25.4222209480513	0	0.9399999999999999	0	36.00074133006577	-13.48996564340964	-10.68420397214326	48.94786853166404	0.8543014677108597	0	0	0	36.00074133006577	-13.48996564340964	-10.68420397214326	48.94786853166404	0.8543014677108597	0	0	0	-3.033681440293468	-2.312629665483652	0.7836327108075205	61.61820762518898	-2.140678061844277	6.224102277141045	44.3788184043835	132.3200422516893	0	0	59.08999444583164	-25.83323103510817	-8.06139610993665	35.05502229578685	113.6905475771601	0	0
8.519999999999907	-5.151490551787952	-1.36216577177586	25.27192218346921	0	0.9399999999999999	0	36.00415085672389	-13.4854371808144	-10.68363606064172	48.9494135521541	0.8543284334054221	0	0	0	36.00415085672389	-13.4854371808144	-10.68363606064172	48.9494135521541	0.8543284334054221	0	0	0	-3.027861402513689	-2.32523568710241	0.9719929087828862	61.61820118606089	-2.188864259790631	6.200790484990497	44.3525507483859	132.3321457237723	0	0	58.68068492723229	-25.72508889941125	-7.575423017249448	36.75346468267698	112.2316680106261	0	0
8.539999999999907	-5.135475380703458	-1.356106904855039	25.16821123255519	0	0.9399999999999999	0	36.00721760545498	-13.4813495650626	-10.6831240131043	48.95079775112895	0.8543525922350359	0	0	0	36.00721760545498	-13.4813495650626	-10.6831240131043	48.95079775112895	0.8543525922350359	0	0	0	-3.008806152832926	-2.334542246578414	1.099573568055467	61.53593839095692	-2.178591397444513	6.070732365530639	44.34871535155084	132.3798394822132	0	0	58.47397577664113	-25.63959914580752	-7.126499662203376	37.90133419160764	111.0307392909872	0	0
8.559999999999906	-5.128794886560211	-1.357340777918575	24.97690656369237	0	0.9399999999999999	0	36.01196824709837	-13.47500448040697	-10.6823296023875	48.95293579644961	0.8543899081654384	0	0	0	36.01196824709837	-13.47500448040697	-10.6823296023875	48.95293579644961	0.8543899081654384	0	0	0	-3.000683489206633	-2.347845370899634	1.265800912284274	61.52874440859727	-2.142735709805564	6.136911366074446	44.326128466059	132.2497491081874	0	0	58.25996165746417	-25.59750458261603	-6.506815931330488	39.83010520251696	109.6710035704412	0	0
